<?xml version="1.0" standalone="no"?>
<!DOCTYPE svg PUBLIC "-//W3C//DTD SVG 20010904//EN"
 "http://www.w3.org/TR/2001/REC-SVG-20010904/DTD/svg10.dtd">
<svg version="1.0" xmlns="http://www.w3.org/2000/svg"
 width="380.000000pt" height="160.000000pt" viewBox="0 0 380.000000 160.000000"
 preserveAspectRatio="xMidYMid meet">

<g transform="translate(0.000000,160.000000) scale(0.100000,-0.100000)"
fill="#000000" stroke="none">
<path d="M50 955 l0 -595 55 0 55 0 0 119 0 118 100 92 c55 51 103 90 108 87
4 -3 82 -97 173 -210 l164 -206 69 0 68 0 -34 43 c-58 71 -291 366 -326 412
l-32 43 117 114 c65 63 145 140 178 171 l60 57 -69 0 -68 0 -152 -137 c-83
-76 -176 -161 -206 -189 -87 -81 -137 -124 -144 -124 -3 0 -6 180 -6 400 l0
400 -55 0 -55 0 0 -595z"/>
<path d="M1199 1197 c-198 -56 -324 -263 -292 -482 31 -217 207 -364 433 -365
115 0 244 46 305 110 l26 28 -31 36 -32 36 -27 -26 c-14 -15 -51 -39 -81 -53
-48 -23 -68 -26 -155 -26 -88 1 -107 4 -157 28 -90 44 -155 130 -173 230 l-7
37 357 0 358 0 -5 84 c-10 152 -88 270 -224 337 -55 27 -77 32 -157 35 -56 3
-110 -1 -138 -9z m246 -111 c27 -12 65 -38 83 -57 36 -37 77 -115 87 -166 l7
-33 -307 0 -307 0 7 33 c42 203 245 308 430 223z"/>
<path d="M2180 1197 c-120 -35 -202 -103 -256 -212 -32 -66 -37 -86 -42 -169
-8 -150 31 -258 123 -345 60 -57 109 -84 192 -105 149 -39 299 -7 416 88 l36
29 -31 38 -31 38 -35 -30 c-64 -57 -116 -73 -227 -74 -89 0 -106 3 -156 27
-30 15 -72 44 -92 65 -44 43 -87 129 -87 172 l0 31 355 0 355 0 0 48 c0 164
-107 329 -248 382 -71 27 -207 36 -272 17z m172 -88 c29 -6 65 -18 80 -25 76
-39 140 -128 154 -213 l7 -41 -302 0 -301 0 0 28 c0 15 11 50 24 77 44 95 106
148 200 171 66 16 75 16 138 3z"/>
<path d="M3273 1200 c-66 -15 -143 -62 -188 -113 l-45 -52 0 83 0 82 -50 0
-50 0 0 -580 0 -580 55 0 55 0 0 237 0 237 46 -48 c27 -28 72 -60 112 -79 62
-29 75 -32 167 -32 80 1 111 5 158 24 167 66 257 207 257 400 0 139 -37 235
-122 318 -48 47 -122 87 -188 102 -51 12 -160 13 -207 1z m252 -129 c106 -59
161 -172 153 -315 -7 -129 -61 -218 -168 -273 -48 -25 -66 -28 -145 -28 -80 0
-96 3 -149 30 -104 52 -166 163 -166 295 0 87 21 154 67 214 92 119 272 153
408 77z"/>
</g>
</svg>
